<svg width="156" height="70" viewBox="0 0 156 70" fill="none" xmlns="http://www.w3.org/2000/svg">
<g clip-path="url(#clip0_371_92)">
<rect width="156" height="70" fill="white"/>
<path d="M0 -46V112H158V-46H0Z" fill="#36393C"/>
<path d="M42.1404 47.4866L34.7826 44.0797L33.8018 43.6705C33.6809 43.6236 33.6071 43.6104 33.5466 43.495L29.667 35.4252C29.7453 35.212 29.8557 35.0136 29.9608 34.8124L33.3899 27.8813C33.4883 27.6829 33.9907 26.5794 34.0743 26.513C34.132 26.4674 34.2067 26.4371 34.2724 26.4047L40.7597 23.0901C41.2201 22.8466 41.7123 22.6531 42.157 22.3828C42.3082 22.514 42.5492 22.6022 42.7279 22.6945L49.5852 26.1989C49.8009 26.3084 50.0311 26.4038 50.2406 26.5232L54.577 35.3277C54.6511 35.4913 54.5199 35.6462 54.448 35.7949L50.7862 43.4067C50.7072 43.5564 50.6705 43.5888 50.5156 43.6523L46.5335 45.4227L44.6597 46.3109C43.8173 46.6997 42.955 47.0401 42.1404 47.4866ZM42.1635 25.2864L36.2678 28.3211C35.8707 28.5062 35.9351 28.4843 35.7324 28.888L32.5091 35.5209L35.3821 41.2962C35.5201 41.5829 35.4923 41.5662 35.7846 41.6854L36.835 42.1439C36.9217 42.1831 37.2488 42.2927 37.3025 42.3436L37.2812 38.6547C36.9112 38.5201 36.419 38.2976 36.0913 38.0921C34.6687 37.2015 34.3357 35.2561 35.243 33.8684C35.4124 33.9147 35.5951 34.0458 35.7472 34.1384L40.1758 36.6797L41.2374 37.2348C41.3044 37.2657 41.3738 37.2759 41.429 37.3259L41.4065 44.1967C41.4642 44.251 41.5401 44.2643 41.6093 44.3001L42.1218 44.5723C42.9686 44.1979 42.8541 44.3278 42.8535 43.474L42.851 37.4045C42.8514 37.274 43.2538 37.1429 43.4044 37.062L48.4048 34.2041C48.6094 34.0798 48.8078 33.9341 49.0383 33.8613C49.3099 34.1177 49.5472 35.0456 49.5586 35.432C49.6028 36.9426 48.7566 37.815 47.4414 38.4559C47.3395 38.5056 47.0303 38.6253 46.9658 38.6806L46.9813 42.3349C47.0417 42.2902 47.151 42.2683 47.2229 42.2362L48.5103 41.6789C48.8088 41.5483 48.7952 41.5989 48.9285 41.3129L51.62 35.7674C51.6657 35.6767 51.7228 35.5903 51.7638 35.4981C51.6018 35.2589 51.4836 34.9864 51.3593 34.7259L48.7202 29.2867C48.5801 29.0018 48.4687 28.5556 48.2042 28.4217L43.8672 26.1899C43.2991 25.8962 42.6977 25.6419 42.1635 25.2864Z" fill="#FBCF5F"/>
<path d="M36.5667 31.171L36.642 30.7118C37.1481 28.7337 39.8304 28.3282 40.7966 30.0119C41.3968 31.0574 41.1114 32.4309 40.0409 33.041C40.3575 33.1524 40.6602 33.3632 40.9494 33.5345L42.1149 34.2455L44.2075 33.0025L44.1267 32.9605C42.4788 32.01 43.0213 29.1395 45.2086 28.9574L45.2345 28.9562C47.4428 28.8503 48.4735 31.5157 46.9728 33.1015C46.6553 33.4373 46.2276 33.6221 45.8384 33.8585L42.759 35.7039C41.9625 36.1872 42.1905 36.1409 41.3617 35.636L37.6474 33.4163C36.8932 32.9278 36.5544 32.052 36.5667 31.171Z" fill="#FBCF5F"/>
<path d="M58.186 39.0983L60.5425 28H62.0361L64.4064 39.0983H62.9402L62.4335 36.303H60.1728L59.6383 39.0983H58.186ZM60.3783 35.1933H62.228L61.296 30.1923L60.3783 35.1933ZM65.5435 39.0983V28H67.0097V39.0983H65.5435ZM68.6403 39.0983V31.1788H70.1061V39.0983H68.6403ZM68.6403 30.0003V28.466H70.1061V30.0003H68.6403ZM73.8604 39.2078C73.2757 39.2078 72.8146 39.089 72.4764 38.8514C72.1385 38.6141 71.8987 38.2762 71.7571 37.8377C71.6157 37.3991 71.5447 36.8832 71.5447 36.2894V33.9876C71.5447 33.3939 71.6157 32.8776 71.7571 32.4391C71.8987 32.0009 72.1385 31.6627 72.4764 31.4254C72.8146 31.1878 73.2757 31.0693 73.8604 31.0693C74.4449 31.0693 74.9041 31.1878 75.2374 31.4254C75.5707 31.6627 75.8083 32.0009 75.9499 32.4391C76.0913 32.8776 76.1622 33.3939 76.1622 33.9876V36.2894C76.1622 36.8832 76.0913 37.3991 75.9499 37.8377C75.8083 38.2762 75.5707 38.6141 75.2374 38.8514C74.9041 39.089 74.4449 39.2078 73.8604 39.2078ZM73.8604 38.1253C74.1437 38.1253 74.3422 38.0432 74.4563 37.8787C74.5705 37.7142 74.639 37.4973 74.6619 37.2279C74.6847 36.9585 74.6961 36.6777 74.6961 36.3854V33.9053C74.6961 33.6038 74.6847 33.3208 74.6619 33.0557C74.639 32.7909 74.5705 32.574 74.4563 32.4049C74.3422 32.2361 74.1437 32.1515 73.8604 32.1515C73.5771 32.1515 73.3763 32.2361 73.2574 32.4049C73.1386 32.574 73.068 32.7909 73.0451 33.0557C73.0223 33.3208 73.0109 33.6038 73.0109 33.9053V36.3854C73.0109 36.6777 73.0223 36.9585 73.0451 37.2279C73.068 37.4973 73.1386 37.7142 73.2574 37.8787C73.3763 38.0432 73.5771 38.1253 73.8604 38.1253ZM77.5049 39.0983V31.1788H78.9711V31.9596C79.2358 31.713 79.5284 31.5032 79.8478 31.3294C80.1675 31.156 80.5193 31.0693 80.9029 31.0693C81.2226 31.0693 81.467 31.1514 81.6361 31.3158C81.8049 31.48 81.9237 31.6855 81.9922 31.9324C82.0607 32.179 82.095 32.4302 82.095 32.686V39.0983H80.6288V33.1106C80.6288 32.8273 80.5878 32.6082 80.5057 32.453C80.4233 32.2978 80.2545 32.22 79.9987 32.22C79.8342 32.22 79.6629 32.2679 79.4849 32.3638C79.3068 32.4598 79.1355 32.5761 78.9711 32.7132V39.0983H77.5049ZM84.7118 39.2078C84.4014 39.2078 84.1273 39.1186 83.8897 38.9406C83.6524 38.7625 83.4651 38.5342 83.3281 38.2555C83.1911 37.9768 83.1226 37.6824 83.1226 37.3717C83.1226 36.8785 83.2047 36.4629 83.3691 36.125C83.5336 35.7871 83.7595 35.5016 84.0474 35.2686C84.335 35.0356 84.6683 34.8326 85.0476 34.6588C85.4268 34.4854 85.8262 34.3163 86.2465 34.1518V33.5902C86.2465 33.2705 86.2283 33.0057 86.1915 32.7955C86.1551 32.5854 86.0798 32.4277 85.9656 32.3228C85.8515 32.2179 85.6802 32.1651 85.4518 32.1651C85.2506 32.1651 85.0886 32.2108 84.9655 32.3021C84.8421 32.3934 84.7529 32.5237 84.6982 32.6928C84.6433 32.8616 84.6159 33.0603 84.6159 33.2887V33.6861L83.1636 33.6312C83.1818 32.7545 83.3827 32.108 83.7666 31.6926C84.1502 31.277 84.7439 31.0693 85.5478 31.0693C86.3332 31.0693 86.8905 31.2837 87.2191 31.713C87.5481 32.1423 87.7126 32.7635 87.7126 33.5766V37.1936C87.7126 37.4402 87.7194 37.6778 87.733 37.9062C87.7468 38.1345 87.7651 38.3468 87.7879 38.5431C87.8107 38.7397 87.8314 38.9245 87.8496 39.0983H86.5069C86.4795 38.952 86.4452 38.7671 86.4042 38.5431C86.3628 38.3194 86.3332 38.1163 86.315 37.9336C86.2236 38.2441 86.0477 38.5342 85.7876 38.8036C85.5271 39.073 85.1685 39.2078 84.7118 39.2078ZM85.2874 37.9472C85.4336 37.9472 85.5706 37.9062 85.6984 37.8241C85.8262 37.7417 85.9406 37.6482 86.0409 37.543C86.1412 37.438 86.2097 37.3535 86.2465 37.2896V35.0424C86.0181 35.1705 85.8036 35.2982 85.6024 35.4263C85.4015 35.5541 85.2256 35.6889 85.075 35.8303C84.9241 35.9719 84.8053 36.1318 84.7186 36.3098C84.6319 36.4882 84.5887 36.6912 84.5887 36.9196C84.5887 37.2393 84.6479 37.4905 84.7668 37.6732C84.8856 37.8559 85.059 37.9472 85.2874 37.9472ZM93.6043 39.0983V29.1511H91.7271V28H96.9747V29.1511H95.1525V39.0983H93.6043ZM99.2491 39.2078C98.6282 39.2078 98.1486 39.0868 97.8104 38.8446C97.4725 38.6027 97.2373 38.2462 97.1049 37.7759C96.9723 37.3056 96.9062 36.728 96.9062 36.0429V34.2342C96.9062 33.5309 96.9747 32.9461 97.1117 32.4805C97.2488 32.0145 97.4885 31.6627 97.8311 31.4254C98.1736 31.1878 98.6464 31.0693 99.2491 31.0693C99.9159 31.0693 100.407 31.2063 100.722 31.48C101.037 31.754 101.245 32.1494 101.345 32.6653C101.446 33.1813 101.496 33.8003 101.496 34.5218V35.1659H98.3723V36.7551C98.3723 37.0748 98.402 37.3353 98.4612 37.5362C98.5205 37.7371 98.6164 37.8855 98.7491 37.9815C98.8815 38.0774 99.0528 38.1253 99.263 38.1253C99.4821 38.1253 99.6487 38.0728 99.7629 37.9679C99.8771 37.8627 99.9548 37.7121 99.9959 37.5158C100.037 37.3192 100.058 37.0887 100.058 36.8236V36.3441H101.482V36.6456C101.482 37.4402 101.314 38.066 100.976 38.5227C100.637 38.9795 100.062 39.2078 99.2491 39.2078ZM98.3723 34.3712H100.058V33.6587C100.058 33.3297 100.039 33.0535 100.003 32.8298C99.9662 32.6061 99.8906 32.437 99.7768 32.3228C99.6626 32.2086 99.482 32.1515 99.2355 32.1515C98.9979 32.1515 98.8176 32.2064 98.6942 32.316C98.5708 32.4255 98.4862 32.6104 98.4409 32.8708C98.3952 33.1313 98.3723 33.4896 98.3723 33.9463V34.3712ZM102.866 39.0983V31.1788H104.332V32.3021C104.625 31.8182 104.917 31.4939 105.209 31.3294C105.501 31.1649 105.794 31.0829 106.086 31.0829C106.123 31.0829 106.157 31.0829 106.189 31.0829C106.221 31.0829 106.264 31.0875 106.319 31.0964V32.7132C106.209 32.6675 106.084 32.6289 105.942 32.5968C105.801 32.5647 105.657 32.549 105.511 32.549C105.282 32.549 105.075 32.6014 104.887 32.7064C104.7 32.8116 104.515 33.0146 104.332 33.3161V39.0983H102.866ZM109.238 41.5781C108.753 41.5781 108.317 41.5257 107.929 41.4204C107.541 41.3155 107.235 41.1535 107.011 40.9341C106.787 40.715 106.675 40.4271 106.675 40.071C106.675 39.7969 106.739 39.5571 106.867 39.3516C106.995 39.1461 107.159 38.9702 107.36 38.8242C107.561 38.678 107.771 38.5638 107.991 38.4817L108.676 38.5774C108.557 38.6872 108.443 38.7989 108.333 38.9131C108.224 39.0273 108.132 39.1461 108.059 39.2695C107.986 39.3927 107.95 39.5275 107.95 39.6735C107.95 39.9111 108.052 40.0892 108.258 40.208C108.463 40.3268 108.831 40.386 109.361 40.386C109.881 40.386 110.267 40.3243 110.519 40.2012C110.77 40.0777 110.895 39.8836 110.895 39.6189C110.895 39.4544 110.863 39.3195 110.799 39.2146C110.736 39.1097 110.626 39.0251 110.47 38.9612C110.315 38.8971 110.092 38.8514 109.799 38.8242L108.073 38.6048C107.717 38.5591 107.452 38.445 107.278 38.2623C107.105 38.0796 107.018 37.8787 107.018 37.6596C107.018 37.3306 107.111 37.052 107.299 36.8236C107.486 36.5953 107.739 36.3397 108.059 36.0565L108.553 36.44C108.498 36.5132 108.429 36.6159 108.347 36.7483C108.265 36.8807 108.224 37.0109 108.224 37.139C108.224 37.2393 108.276 37.3217 108.381 37.3856C108.486 37.4494 108.653 37.4905 108.881 37.5087L110.21 37.6321C110.832 37.6871 111.293 37.8741 111.594 38.1938C111.896 38.5135 112.046 38.9702 112.046 39.5639C112.046 40.0024 111.943 40.3725 111.738 40.6739C111.532 40.9751 111.224 41.2013 110.813 41.3519C110.402 41.5028 109.877 41.5781 109.238 41.5781ZM109.292 36.6595C108.753 36.6595 108.315 36.5406 107.977 36.303C107.639 36.0657 107.39 35.7368 107.23 35.3165C107.07 34.8965 106.99 34.4169 106.99 33.8778C106.99 33.2658 107.077 32.752 107.251 32.3364C107.424 31.921 107.682 31.6059 108.025 31.3911C108.367 31.1764 108.79 31.0693 109.292 31.0693C109.813 31.0693 110.238 31.1992 110.566 31.4596C110.895 31.7198 111.137 32.0648 111.293 32.4941C111.448 32.9233 111.526 33.3982 111.526 33.9191C111.526 34.4579 111.455 34.9353 111.313 35.3507C111.172 35.7664 110.939 36.0885 110.615 36.3169C110.29 36.5453 109.85 36.6595 109.292 36.6595ZM109.292 35.6044C109.493 35.6044 109.653 35.5655 109.772 35.4877C109.891 35.4103 109.98 35.2982 110.039 35.1523C110.098 35.006 110.139 34.8255 110.162 34.611C110.185 34.3962 110.196 34.1518 110.196 33.8778C110.196 33.6038 110.187 33.3572 110.169 33.1381C110.151 32.9187 110.11 32.7338 110.046 32.5832C109.982 32.4323 109.891 32.316 109.772 32.2336C109.653 32.1515 109.498 32.1105 109.306 32.1105C109.105 32.1105 108.943 32.1494 108.819 32.2268C108.696 32.3046 108.6 32.4188 108.532 32.5693C108.463 32.7203 108.418 32.9051 108.395 33.1242C108.372 33.3436 108.361 33.5948 108.361 33.8778C108.361 34.1247 108.372 34.353 108.395 34.5629C108.418 34.773 108.461 34.9557 108.525 35.1109C108.589 35.2665 108.682 35.3874 108.806 35.4741C108.929 35.5609 109.091 35.6044 109.292 35.6044ZM111.252 32.5076L110.909 31.9596C110.982 31.8318 111.147 31.672 111.402 31.48C111.658 31.2884 111.932 31.1285 112.224 31.0008L112.608 31.9596C112.48 31.987 112.309 32.0373 112.094 32.1105C111.879 32.1836 111.685 32.2589 111.512 32.3364C111.338 32.4141 111.252 32.4712 111.252 32.5076ZM114.307 39.2078C113.996 39.2078 113.755 39.1254 113.581 38.9612C113.407 38.7968 113.286 38.5912 113.218 38.3447C113.149 38.0981 113.115 37.8469 113.115 37.5911V31.1788H114.581V37.1526C114.581 37.4359 114.622 37.6571 114.704 37.817C114.786 37.9768 114.956 38.0568 115.211 38.0568C115.376 38.0568 115.547 38.0089 115.725 37.913C115.903 37.817 116.075 37.7006 116.239 37.5636V31.1788H117.705V39.0983H116.239V38.3172C115.983 38.5638 115.693 38.7739 115.369 38.9474C115.044 39.1211 114.691 39.2078 114.307 39.2078ZM121.309 39.2078C120.898 39.2078 120.566 39.13 120.315 38.9748C120.064 38.8196 119.881 38.6005 119.767 38.3172C119.653 38.0339 119.596 37.7006 119.596 37.3171V32.1515H118.76V31.1788H119.596V28.8631H121.062V31.1788H122.336V32.1515H121.062V37.2211C121.062 37.5315 121.112 37.7531 121.213 37.8855C121.313 38.0182 121.505 38.0842 121.788 38.0842C121.861 38.0842 121.946 38.0796 122.041 38.0706C122.137 38.0614 122.231 38.0524 122.322 38.0432V39.1254C122.14 39.1529 121.971 39.1736 121.815 39.1871C121.66 39.201 121.491 39.2078 121.309 39.2078ZM124.611 39.2078C124.3 39.2078 124.026 39.1186 123.788 38.9406C123.551 38.7625 123.364 38.5342 123.227 38.2555C123.09 37.9768 123.021 37.6824 123.021 37.3717C123.021 36.8785 123.103 36.4629 123.268 36.125C123.432 35.7871 123.658 35.5016 123.946 35.2686C124.234 35.0356 124.567 34.8326 124.946 34.6588C125.325 34.4854 125.725 34.3163 126.145 34.1518V33.5902C126.145 33.2705 126.127 33.0057 126.09 32.7955C126.054 32.5854 125.978 32.4277 125.864 32.3228C125.75 32.2179 125.579 32.1651 125.35 32.1651C125.149 32.1651 124.987 32.2108 124.864 32.3021C124.741 32.3934 124.652 32.5237 124.597 32.6928C124.542 32.8616 124.515 33.0603 124.515 33.2887V33.6861L123.062 33.6312C123.081 32.7545 123.281 32.108 123.665 31.6926C124.049 31.277 124.642 31.0693 125.446 31.0693C126.232 31.0693 126.789 31.2837 127.118 31.713C127.447 32.1423 127.611 32.7635 127.611 33.5766V37.1936C127.611 37.4402 127.618 37.6778 127.632 37.9062C127.645 38.1345 127.663 38.3468 127.687 38.5431C127.709 38.7397 127.73 38.9245 127.748 39.0983H126.405C126.378 38.952 126.344 38.7671 126.303 38.5431C126.262 38.3194 126.232 38.1163 126.214 37.9336C126.122 38.2441 125.946 38.5342 125.686 38.8036C125.426 39.073 125.067 39.2078 124.611 39.2078ZM125.186 37.9472C125.332 37.9472 125.469 37.9062 125.597 37.8241C125.725 37.7417 125.839 37.6482 125.94 37.543C126.04 37.438 126.108 37.3535 126.145 37.2896V35.0424C125.916 35.1705 125.702 35.2982 125.501 35.4263C125.3 35.5541 125.124 35.6889 124.973 35.8303C124.823 35.9719 124.704 36.1318 124.617 36.3098C124.531 36.4882 124.487 36.6912 124.487 36.9196C124.487 37.2393 124.547 37.4905 124.665 37.6732C124.784 37.8559 124.958 37.9472 125.186 37.9472Z" fill="#FBCF5F"/>
</g>
<defs>
<clipPath id="clip0_371_92">
<rect width="156" height="70" fill="white"/>
</clipPath>
</defs>
</svg>
