<svg width="200" height="70" viewBox="0 0 200 70" fill="none" xmlns="http://www.w3.org/2000/svg">
<g clip-path="url(#clip0_371_100)">
<path d="M43.3797 55.0035L31.948 49.7102L30.4243 49.0745C30.2363 49.0016 30.1217 48.981 30.0278 48.8017L24 36.2638C24.1216 35.9325 24.2932 35.6242 24.4564 35.3116L29.7842 24.543C29.9371 24.2347 30.7177 22.5202 30.8476 22.4171C30.9373 22.3461 31.0533 22.2991 31.1554 22.2488L41.2346 17.0989C41.95 16.7206 42.7147 16.42 43.4056 16C43.6405 16.2038 44.015 16.3409 44.2926 16.4843L54.9466 21.929C55.2818 22.0992 55.6395 22.2473 55.965 22.4329L62.7024 36.1123C62.8174 36.3664 62.6137 36.6071 62.502 36.8382L56.8127 48.6645C56.69 48.8971 56.6329 48.9474 56.3922 49.0462L50.2053 51.7968L47.294 53.1767C45.9851 53.7809 44.6455 54.3097 43.3797 55.0035ZM43.4157 20.5112L34.2556 25.2262C33.6386 25.5139 33.7388 25.4799 33.4238 26.107L28.4158 36.4125L32.8796 45.3855C33.0939 45.831 33.0507 45.8051 33.5048 45.9901L35.1369 46.7026C35.2716 46.7635 35.7798 46.9337 35.8632 47.0128L35.8302 41.2814C35.2553 41.0723 34.4906 40.7266 33.9814 40.4073C31.7711 39.0236 31.2537 36.0011 32.6633 33.845C32.9266 33.9169 33.2104 34.1207 33.4468 34.2645L40.3275 38.2128L41.9768 39.0754C42.0809 39.1233 42.1887 39.1392 42.2746 39.2168L42.2396 49.892C42.3292 49.9763 42.4472 49.997 42.5546 50.0526L43.3509 50.4755C44.6666 49.8939 44.4887 50.0957 44.4877 48.7691L44.4839 39.3391C44.4844 39.1363 45.1096 38.9325 45.3436 38.8069L53.1127 34.3666C53.4306 34.1734 53.7389 33.9471 54.097 33.8339C54.519 34.2324 54.8877 35.6741 54.9054 36.2744C54.974 38.6213 53.6593 39.9768 51.6158 40.9726C51.4576 41.0498 50.9772 41.2358 50.877 41.3216L50.901 46.9994C50.9949 46.9299 51.1647 46.8958 51.2764 46.846L53.2767 45.9801C53.7403 45.7772 53.7192 45.8559 53.9264 45.4114L58.1082 36.7956C58.1792 36.6546 58.2679 36.5203 58.3316 36.377C58.0799 36.0054 57.8963 35.582 57.703 35.1774L53.6027 26.7264C53.385 26.2839 53.212 25.5906 52.8011 25.3825L46.0628 21.9151C45.1801 21.4586 44.2456 21.0636 43.4157 20.5112Z" fill="#36393C"/>
<path d="M34.7202 29.6568L34.8372 28.9433C35.6235 25.87 39.791 25.24 41.2922 27.8559C42.2247 29.4803 41.7812 31.6144 40.118 32.5623C40.6099 32.7354 41.0803 33.0628 41.5295 33.3289L43.3404 34.4336L46.5916 32.5023L46.466 32.4371C43.9057 30.9604 44.7486 26.5005 48.147 26.2176L48.1873 26.2157C51.6183 26.0512 53.2197 30.1923 50.8881 32.6563C50.3947 33.1779 49.7302 33.4651 49.1256 33.8324L44.341 36.6995C43.1036 37.4504 43.4579 37.3784 42.1701 36.594L36.3993 33.1453C35.2275 32.3863 34.7011 31.0256 34.7202 29.6568Z" fill="#36393C"/>
<path d="M68.0645 42.2589L71.7256 25.0156H74.0462L77.7289 42.2589H75.451L74.6637 37.9159H71.1512L70.3208 42.2589H68.0645ZM71.4705 36.1918H74.3444L72.8964 28.4217L71.4705 36.1918ZM79.4957 42.2589V25.0156H81.7736V42.2589H79.4957ZM84.3071 42.2589V29.9545H86.5845V42.2589H84.3071ZM84.3071 28.1235V25.7396H86.5845V28.1235H84.3071ZM92.4176 42.4291C91.509 42.4291 90.7927 42.2445 90.2672 41.8753C89.7422 41.5066 89.3697 40.9816 89.1496 40.3003C88.93 39.619 88.8197 38.8173 88.8197 37.8948V34.3186C88.8197 33.3961 88.93 32.5939 89.1496 31.9126C89.3697 31.2318 89.7422 30.7063 90.2672 30.3376C90.7927 29.9684 91.509 29.7843 92.4176 29.7843C93.3257 29.7843 94.0391 29.9684 94.5569 30.3376C95.0747 30.7063 95.4439 31.2318 95.664 31.9126C95.8836 32.5939 95.9939 33.3961 95.9939 34.3186V37.8948C95.9939 38.8173 95.8836 39.619 95.664 40.3003C95.4439 40.9816 95.0747 41.5066 94.5569 41.8753C94.0391 42.2445 93.3257 42.4291 92.4176 42.4291ZM92.4176 40.7471C92.8577 40.7471 93.166 40.6196 93.3434 40.364C93.5208 40.1085 93.6273 39.7714 93.6627 39.3529C93.6982 38.9343 93.716 38.498 93.716 38.044V34.1905C93.716 33.7221 93.6982 33.2824 93.6627 32.8706C93.6273 32.4592 93.5208 32.1222 93.3434 31.8594C93.166 31.5972 92.8577 31.4658 92.4176 31.4658C91.9774 31.4658 91.6653 31.5972 91.4807 31.8594C91.2961 32.1222 91.1863 32.4592 91.1509 32.8706C91.1154 33.2824 91.0976 33.7221 91.0976 34.1905V38.044C91.0976 38.498 91.1154 38.9343 91.1509 39.3529C91.1863 39.7714 91.2961 40.1085 91.4807 40.364C91.6653 40.6196 91.9774 40.7471 92.4176 40.7471ZM98.08 42.2589V29.9545H100.358V31.1676C100.769 30.7845 101.224 30.4584 101.72 30.1885C102.217 29.919 102.763 29.7843 103.359 29.7843C103.856 29.7843 104.236 29.9119 104.499 30.1674C104.761 30.4225 104.945 30.7418 105.052 31.1254C105.158 31.5084 105.211 31.8987 105.211 32.2962V42.2589H102.934V32.9559C102.934 32.5158 102.87 32.1754 102.742 31.9342C102.614 31.693 102.352 31.5722 101.954 31.5722C101.699 31.5722 101.433 31.6465 101.156 31.7957C100.88 31.9448 100.613 32.1255 100.358 32.3384V42.2589H98.08ZM109.277 42.4291C108.795 42.4291 108.369 42.2905 108 42.0139C107.631 41.7372 107.34 41.3824 107.127 40.9495C106.914 40.5165 106.808 40.0591 106.808 39.5763C106.808 38.8101 106.936 38.1643 107.191 37.6393C107.447 37.1143 107.798 36.6708 108.245 36.3088C108.692 35.9468 109.21 35.6313 109.799 35.3614C110.388 35.0919 111.009 34.8292 111.662 34.5736V33.701C111.662 33.2043 111.633 32.7929 111.576 32.4664C111.52 32.1399 111.403 31.8949 111.225 31.7319C111.048 31.5689 110.782 31.4869 110.427 31.4869C110.114 31.4869 109.863 31.5578 109.671 31.6998C109.48 31.8417 109.341 32.044 109.256 32.3067C109.171 32.569 109.128 32.8778 109.128 33.2326V33.8501L106.872 33.7648C106.9 32.4026 107.212 31.3982 107.809 30.7528C108.405 30.107 109.327 29.7843 110.576 29.7843C111.796 29.7843 112.662 30.1175 113.173 30.7845C113.684 31.4514 113.94 32.4165 113.94 33.6799V39.2996C113.94 39.6827 113.95 40.0519 113.971 40.4067C113.993 40.7615 114.021 41.0914 114.057 41.3963C114.092 41.7017 114.124 41.9889 114.152 42.2589H112.066C112.024 42.0316 111.97 41.7444 111.907 41.3963C111.842 41.0487 111.796 40.7332 111.768 40.4494C111.626 40.9317 111.353 41.3824 110.949 41.801C110.544 42.2196 109.987 42.4291 109.277 42.4291ZM110.171 40.4705C110.399 40.4705 110.612 40.4067 110.81 40.2792C111.009 40.1512 111.186 40.0059 111.342 39.8424C111.498 39.6794 111.605 39.548 111.662 39.4488V35.9574C111.307 36.1563 110.974 36.3548 110.661 36.5538C110.349 36.7523 110.076 36.9618 109.842 37.1814C109.607 37.4015 109.423 37.6498 109.288 37.9265C109.153 38.2036 109.086 38.5191 109.086 38.8739C109.086 39.3706 109.178 39.7609 109.363 40.0447C109.547 40.3286 109.817 40.4705 110.171 40.4705ZM123.093 42.2589V26.804H120.177V25.0156H128.33V26.804H125.499V42.2589H123.093ZM131.864 42.4291C130.899 42.4291 130.154 42.2411 129.628 41.8648C129.103 41.4889 128.738 40.9351 128.532 40.2044C128.326 39.4737 128.224 38.5761 128.224 37.5117V34.7016C128.224 33.609 128.33 32.7004 128.543 31.9769C128.756 31.2529 129.128 30.7063 129.66 30.3376C130.193 29.9684 130.927 29.7843 131.864 29.7843C132.9 29.7843 133.663 29.9972 134.152 30.4225C134.642 30.8482 134.965 31.4624 135.121 32.2641C135.277 33.0657 135.355 34.0275 135.355 35.1485V36.1491H130.501V38.6183C130.501 39.1151 130.547 39.5197 130.64 39.8319C130.732 40.144 130.881 40.3746 131.087 40.5237C131.293 40.6728 131.559 40.7471 131.885 40.7471C132.226 40.7471 132.484 40.6656 132.662 40.5026C132.839 40.3391 132.96 40.1051 133.024 39.8002C133.088 39.4948 133.12 39.1366 133.12 38.7248V37.9797H135.333V38.4481C135.333 39.6827 135.071 40.6551 134.546 41.3647C134.021 42.0743 133.126 42.4291 131.864 42.4291ZM130.501 34.9145H133.12V33.8075C133.12 33.2964 133.091 32.8672 133.034 32.5196C132.978 32.172 132.86 31.9093 132.683 31.7319C132.506 31.5545 132.226 31.4658 131.842 31.4658C131.473 31.4658 131.193 31.5511 131.002 31.7213C130.81 31.8915 130.678 32.1787 130.608 32.5834C130.537 32.9881 130.501 33.5447 130.501 34.2543V34.9145ZM137.484 42.2589V29.9545H139.761V31.6998C140.216 30.948 140.67 30.4441 141.124 30.1885C141.578 29.933 142.032 29.8054 142.486 29.8054C142.543 29.8054 142.596 29.8054 142.646 29.8054C142.696 29.8054 142.763 29.8126 142.848 29.8265V32.3384C142.678 32.2674 142.483 32.2075 142.263 32.1576C142.043 32.1078 141.82 32.0833 141.592 32.0833C141.237 32.0833 140.915 32.1648 140.624 32.3278C140.333 32.4913 140.045 32.8068 139.761 33.2753V42.2589H137.484ZM147.383 46.1118C146.63 46.1118 145.952 46.0303 145.349 45.8668C144.747 45.7038 144.271 45.4521 143.923 45.1112C143.576 44.7707 143.402 44.3234 143.402 43.7701C143.402 43.3444 143.501 42.9718 143.699 42.6525C143.898 42.3332 144.154 42.0599 144.466 41.8331C144.778 41.6058 145.105 41.4284 145.445 41.3009L146.51 41.4495C146.325 41.6202 146.148 41.7938 145.977 41.9712C145.807 42.1486 145.665 42.3332 145.552 42.525C145.439 42.7163 145.381 42.9258 145.381 43.1526C145.381 43.5218 145.541 43.7984 145.86 43.983C146.18 44.1676 146.751 44.2596 147.574 44.2596C148.383 44.2596 148.983 44.1638 149.373 43.9725C149.763 43.7807 149.958 43.4791 149.958 43.0677C149.958 42.8122 149.908 42.6026 149.809 42.4396C149.71 42.2766 149.54 42.1452 149.298 42.046C149.057 41.9463 148.709 41.8753 148.255 41.8331L145.573 41.4922C145.019 41.4212 144.608 41.2439 144.338 40.96C144.069 40.6762 143.934 40.3641 143.934 40.0236C143.934 39.5125 144.079 39.0796 144.37 38.7248C144.661 38.37 145.055 37.973 145.552 37.5328L146.318 38.1288C146.233 38.2424 146.127 38.4021 145.999 38.6078C145.871 38.8135 145.807 39.0158 145.807 39.2148C145.807 39.3706 145.889 39.4986 146.052 39.5979C146.215 39.6971 146.474 39.7609 146.829 39.7892L148.894 39.981C149.859 40.0663 150.575 40.3569 151.044 40.8536C151.512 41.3503 151.746 42.0599 151.746 42.9824C151.746 43.6637 151.587 44.2386 151.267 44.707C150.948 45.1749 150.469 45.5264 149.83 45.7604C149.192 45.9948 148.376 46.1118 147.383 46.1118ZM147.468 38.4697C146.63 38.4697 145.949 38.2851 145.424 37.9159C144.899 37.5472 144.512 37.0361 144.264 36.3831C144.015 35.7306 143.891 34.9855 143.891 34.1479C143.891 33.1971 144.026 32.3988 144.296 31.753C144.565 31.1076 144.966 30.6181 145.498 30.2844C146.031 29.9507 146.687 29.7843 147.468 29.7843C148.276 29.7843 148.937 29.9862 149.447 30.3908C149.958 30.795 150.334 31.3311 150.575 31.998C150.817 32.6649 150.937 33.4028 150.937 34.2121C150.937 35.0493 150.828 35.791 150.608 36.4363C150.387 37.0822 150.026 37.5827 149.522 37.9375C149.018 38.2923 148.333 38.4697 147.468 38.4697ZM147.468 36.8304C147.78 36.8304 148.028 36.77 148.213 36.6492C148.397 36.5289 148.536 36.3548 148.628 36.128C148.72 35.9008 148.784 35.6203 148.819 35.2871C148.855 34.9534 148.872 34.5736 148.872 34.1479C148.872 33.7221 148.858 33.339 148.83 32.9986C148.802 32.6577 148.738 32.3705 148.638 32.1365C148.539 31.9021 148.397 31.7213 148.213 31.5933C148.028 31.4658 147.787 31.402 147.489 31.402C147.177 31.402 146.925 31.4624 146.733 31.5828C146.542 31.7036 146.393 31.881 146.286 32.115C146.18 32.3494 146.109 32.6366 146.073 32.977C146.038 33.3179 146.02 33.7082 146.02 34.1479C146.02 34.5314 146.038 34.8862 146.073 35.2123C146.109 35.5388 146.176 35.8226 146.276 36.0638C146.375 36.3054 146.52 36.4934 146.712 36.6281C146.904 36.7628 147.155 36.8304 147.468 36.8304ZM150.512 32.0191L149.979 31.1676C150.093 30.9691 150.349 30.7207 150.746 30.4225C151.144 30.1247 151.569 29.8764 152.023 29.6779L152.619 31.1676C152.421 31.2102 152.155 31.2884 151.821 31.402C151.487 31.5156 151.186 31.6326 150.916 31.753C150.646 31.8738 150.512 31.9625 150.512 32.0191ZM155.259 42.4291C154.776 42.4291 154.401 42.3011 154.131 42.046C153.861 41.7904 153.673 41.4711 153.567 41.088C153.46 40.7049 153.407 40.3147 153.407 39.9172V29.9545H155.685V39.2359C155.685 39.676 155.749 40.0198 155.876 40.2682C156.004 40.5165 156.267 40.6407 156.664 40.6407C156.92 40.6407 157.186 40.5664 157.462 40.4173C157.739 40.2682 158.005 40.0874 158.261 39.8745V29.9545H160.538V42.2589H158.261V41.0454C157.863 41.4285 157.412 41.755 156.909 42.0244C156.405 42.2944 155.855 42.4291 155.259 42.4291ZM166.137 42.4291C165.499 42.4291 164.984 42.3083 164.594 42.0671C164.204 41.8259 163.919 41.4855 163.742 41.0454C163.565 40.6052 163.476 40.0874 163.476 39.4914V31.4658H162.177V29.9545H163.476V26.3567H165.754V29.9545H167.734V31.4658H165.754V39.3423C165.754 39.8247 165.832 40.1689 165.988 40.3746C166.144 40.5808 166.442 40.6834 166.882 40.6834C166.995 40.6834 167.127 40.6762 167.276 40.6623C167.425 40.6479 167.57 40.634 167.712 40.6196V42.3011C167.428 42.3437 167.166 42.3759 166.924 42.397C166.683 42.4185 166.421 42.4291 166.137 42.4291ZM171.267 42.4291C170.785 42.4291 170.359 42.2905 169.99 42.0139C169.621 41.7372 169.33 41.3824 169.118 40.9495C168.905 40.5165 168.798 40.0591 168.798 39.5763C168.798 38.8101 168.926 38.1643 169.181 37.6393C169.436 37.1143 169.788 36.6708 170.235 36.3088C170.682 35.9468 171.2 35.6313 171.789 35.3614C172.378 35.0919 172.999 34.8292 173.652 34.5736V33.701C173.652 33.2043 173.623 32.7929 173.566 32.4664C173.509 32.1399 173.392 31.8949 173.215 31.7319C173.038 31.5689 172.772 31.4869 172.417 31.4869C172.105 31.4869 171.853 31.5578 171.661 31.6998C171.47 31.8417 171.331 32.044 171.246 32.3067C171.161 32.569 171.118 32.8778 171.118 33.2326V33.8501L168.862 33.7648C168.89 32.4026 169.202 31.3982 169.798 30.7528C170.394 30.107 171.317 29.7843 172.566 29.7843C173.786 29.7843 174.652 30.1175 175.163 30.7845C175.674 31.4514 175.929 32.4165 175.929 33.6799V39.2996C175.929 39.6827 175.94 40.0519 175.961 40.4067C175.982 40.7615 176.011 41.0914 176.047 41.3963C176.082 41.7017 176.114 41.9889 176.142 42.2589H174.056C174.013 42.0316 173.96 41.7444 173.896 41.3963C173.832 41.0487 173.786 40.7332 173.758 40.4494C173.616 40.9317 173.343 41.3824 172.938 41.801C172.534 42.2196 171.977 42.4291 171.267 42.4291ZM172.162 40.4705C172.388 40.4705 172.601 40.4067 172.8 40.2792C172.999 40.1512 173.176 40.0059 173.332 39.8424C173.488 39.6794 173.595 39.548 173.652 39.4488V35.9574C173.296 36.1563 172.963 36.3548 172.651 36.5538C172.339 36.7523 172.066 36.9618 171.831 37.1814C171.597 37.4015 171.413 37.6498 171.278 37.9265C171.143 38.2036 171.076 38.5191 171.076 38.8739C171.076 39.3706 171.168 39.7609 171.352 40.0447C171.537 40.3286 171.807 40.4705 172.162 40.4705Z" fill="#36393C"/>
</g>
<defs>
<clipPath id="clip0_371_100">
<rect width="200" height="70" fill="white"/>
</clipPath>
</defs>
</svg>
