<svg width="32" height="32" viewBox="0 0 32 32" fill="none" xmlns="http://www.w3.org/2000/svg">
<g clip-path="url(#clip0_1033_369)">
<path d="M28.7996 0.640015H3.19965C1.79165 0.640015 0.639648 1.79201 0.639648 3.20001V28.8C0.639648 30.208 1.79165 31.36 3.19965 31.36H28.7996C30.2076 31.36 31.3596 30.208 31.3596 28.8V3.20001C31.3596 1.79201 30.2076 0.640015 28.7996 0.640015Z" fill="#2C2C2C"/>
<path d="M19.4557 25.6H16.8957H14.3357C14.3357 25.6 14.3357 24.064 14.3357 23.04C10.8157 23.808 9.85572 21.12 9.85572 21.12C9.21572 19.84 8.57572 19.2 8.57572 19.2C7.29572 18.432 8.57572 18.56 8.57572 18.56C9.85572 18.56 10.4957 19.84 10.4957 19.84C11.6477 21.76 13.6317 21.44 14.3357 21.12C14.3357 20.48 14.5917 19.52 14.9757 19.2C12.1597 18.88 9.85572 17.28 9.85572 14.08C9.85572 10.88 10.4957 10.24 11.1357 9.60002C11.0077 9.28002 10.4957 8.12802 11.1357 6.40002C11.1357 6.40002 12.4157 6.40002 13.6957 8.32002C14.3357 7.68002 16.2557 7.68002 16.8957 7.68002C17.5357 7.68002 19.4557 7.68002 20.0957 8.32002C21.3757 6.40002 22.6557 6.40002 22.6557 6.40002C23.3597 8.12802 22.7837 9.28002 22.6557 9.60002C23.2957 10.24 23.9357 10.88 23.9357 14.08C23.9357 17.28 21.6317 18.88 18.8157 19.2C19.1997 19.52 19.4557 20.608 19.4557 21.12V25.6Z" fill="white"/>
</g>
<defs>
<clipPath id="clip0_1033_369">
<rect width="32" height="32" fill="white"/>
</clipPath>
</defs>
</svg>
