<svg width="32" height="32" viewBox="0 0 32 32" fill="none" xmlns="http://www.w3.org/2000/svg">
<g clip-path="url(#clip0_1033_378)">
<path d="M28.7996 0.640015H3.19965C1.79165 0.640015 0.639648 1.79201 0.639648 3.20001V28.8C0.639648 30.208 1.79165 31.36 3.19965 31.36H28.7996C30.2076 31.36 31.3596 30.208 31.3596 28.8V3.20001C31.3596 1.79201 30.2076 0.640015 28.7996 0.640015Z" fill="#2C2C2C"/>
<path d="M19.5 25.2857H16.9286H14.3571C14.3571 25.2857 14.3571 23.7429 14.3571 22.7143C10.8214 23.4857 9.85714 20.7857 9.85714 20.7857C9.21429 19.5 8.57143 18.8571 8.57143 18.8571C7.28571 18.0857 8.57143 18.2143 8.57143 18.2143C9.85714 18.2143 10.5 19.5 10.5 19.5C11.6571 21.4286 13.65 21.1071 14.3571 20.7857C14.3571 20.1429 14.6143 19.1786 15 18.8571C12.1714 18.5357 9.85714 16.9286 9.85714 13.7143C9.85714 10.5 10.5 9.85714 11.1429 9.21429C11.0143 8.89286 10.5 7.73571 11.1429 6C11.1429 6 12.4286 6 13.7143 7.92857C14.3571 7.28571 16.2857 7.28571 16.9286 7.28571C17.5714 7.28571 19.5 7.28571 20.1429 7.92857C21.4286 6 22.7143 6 22.7143 6C23.4214 7.73571 22.8429 8.89286 22.7143 9.21429C23.3571 9.85714 24 10.5 24 13.7143C24 16.9286 21.6857 18.5357 18.8571 18.8571C19.2429 19.1786 19.5 20.2714 19.5 20.7857V25.2857Z" fill="#E4E1E5"/>
</g>
<defs>
<clipPath id="clip0_1033_378">
<rect width="32" height="32" fill="white"/>
</clipPath>
</defs>
</svg>
